<svg width="81" height="80" viewBox="0 0 81 80" fill="none" xmlns="http://www.w3.org/2000/svg">
<rect x="0.801758" width="80" height="80" rx="24" fill="url(#paint0_linear_6001_2371)"/>
<g clip-path="url(#clip0_6001_2371)">
<mask id="mask0_6001_2371" style="mask-type:luminance" maskUnits="userSpaceOnUse" x="9" y="15" width="62" height="42">
<path d="M70.726 15.8956H9.72595V56.8956H70.726V15.8956Z" fill="white"/>
</mask>
<g mask="url(#mask0_6001_2371)">
<path d="M37.7572 35.0087C39.7131 34.9632 41.6653 35.0185 43.6212 35.0216L55.4786 35.032L61.6138 35.0291C62.7468 35.0236 63.923 34.9278 65.0494 35.0447C65.7017 35.1125 66.2073 35.2445 66.6956 35.69C66.8795 35.8577 67.0617 36.0566 67.1687 36.2798C67.5599 37.096 67.6913 38.1502 67.8864 39.0278C68.5766 42.1328 69.25 45.1896 69.3582 48.3762C69.3932 49.4094 69.6345 51.6981 68.8333 52.4768C68.5721 52.7306 68.2167 52.8881 67.8596 52.9688C66.9738 53.1692 65.2956 53.05 64.3312 53.06C64.0518 53.5408 63.7458 54.0041 63.4402 54.4696C65.7021 54.5684 67.9671 54.3927 70.2343 54.5535C70.2173 55.1535 70.2262 55.756 70.2248 56.3564C67.1768 56.4887 64.0932 56.4076 61.0403 56.4066L45.4689 56.3695L27.0429 56.3329C24.0437 56.3604 21.0442 56.3577 18.0451 56.325C18.0421 55.896 18.0792 55.4625 18.1044 55.0343C17.7418 55.0153 17.3781 55.0067 17.0152 54.9931C16.1134 54.0688 15.2438 53.0599 14.4983 52.0122C11.5723 47.8993 10.1231 43.2566 10.3893 38.2587C10.4375 37.3555 10.4881 36.4449 10.6587 35.554C10.6881 35.572 10.7173 35.5905 10.7462 35.6093C11.489 36.093 12.1804 36.7037 12.8198 37.3088C16.0824 40.3968 17.6559 44.3194 18.5338 48.5765C18.8699 50.5235 18.9048 52.4015 18.8498 54.3666L22.4111 54.3637C22.6247 53.2295 22.8395 52.1092 23.1667 50.999C24.3114 47.0787 26.5047 43.5186 29.5258 40.6768C29.4978 41.9131 29.4876 43.1497 29.4954 44.3864C28.8743 45.2147 28.2565 46.0342 27.7168 46.9156C26.3484 49.1504 25.3517 51.8298 25.0516 54.4114C28.6398 54.3502 32.2288 54.3507 35.8169 54.4129C35.5011 53.9633 35.2203 53.4824 35.0543 52.961C34.742 51.9964 34.8388 50.9515 35.3234 50.0558C35.8114 49.1725 36.6821 48.4705 37.6801 48.19C38.6758 47.9102 39.8452 48.0319 40.7493 48.5264C41.8589 49.1332 42.3981 50.1026 42.7288 51.2544C43.5553 51.2554 44.3804 51.2041 45.2072 51.1981C47.8446 51.1872 50.482 51.195 53.1192 51.2216C54.2753 51.2383 55.4134 51.187 56.5683 51.2817C56.6863 50.7261 56.9028 50.1943 57.2086 49.7102C57.7411 48.8815 58.5683 48.252 59.5584 48.0277C60.5649 47.7997 61.7145 47.993 62.5852 48.5284C63.5802 49.1402 64.1978 50.1693 64.4449 51.2671C65.5268 51.2979 66.6102 51.2818 67.6926 51.3115C67.6201 50.4223 67.6898 49.5065 67.659 48.611C64.5674 46.7833 60.0009 45.1265 56.4086 44.5825C55.1315 44.3891 53.8419 44.429 52.554 44.4311L48.1861 44.4377L31.9697 44.4469C31.965 44.3584 31.9609 44.2698 31.9573 44.1813C31.8506 41.5587 32.2086 38.5763 34.1507 36.5775C35.1161 35.5839 36.3524 35.0451 37.7572 35.0087ZM62.4724 43.173C63.6681 43.5662 65.3012 43.6823 66.5798 43.9811L67.6414 44.217L66.7722 40.2539C66.5393 39.217 66.263 38.1756 66.111 37.1249C64.7909 37.0483 63.3645 37.0187 62.0456 37.0988C61.653 37.1198 61.1979 37.0953 60.9115 37.4031C60.5382 37.8043 60.5971 39.7574 60.6871 40.3078C60.8039 41.0235 62.0153 42.5172 62.4724 43.173ZM58.5596 40.4143C58.7416 40.4018 58.9115 40.4087 59.0452 40.2735C59.4704 39.8434 59.3551 38.4889 59.3002 37.9299C59.2765 37.69 59.2392 37.4244 59.0572 37.2466C58.3677 36.9806 54.166 37.045 53.172 37.0972C52.9356 37.1145 52.715 37.1059 52.5479 37.2943C52.4338 37.4231 52.3755 37.6153 52.3542 37.7806C52.3089 38.1309 52.3309 39.5354 52.3751 39.8836C52.3923 40.0193 52.4543 40.2167 52.5726 40.3014C52.9254 40.5537 57.7964 40.4352 58.5596 40.4143ZM50.2204 40.4299C50.4244 40.4147 50.7901 40.429 50.927 40.262C51.2122 39.9141 51.1836 38.1881 51.1026 37.7234C51.066 37.5132 51.0123 37.3514 50.8511 37.2032C50.1714 36.9663 46.1738 37.0616 45.2194 37.0997C44.9972 37.1083 44.5773 37.0797 44.4167 37.2522C44.1094 37.5822 44.1886 39.4145 44.2875 39.8571C44.3279 40.0378 44.3808 40.1614 44.4999 40.3054C45.0196 40.5937 49.4064 40.4428 50.2204 40.4299ZM38.5756 50.2917C37.6747 50.4217 37.0566 51.2367 37.1997 52.1056C37.3428 52.9744 38.1923 53.5638 39.0905 53.4173C39.9767 53.2727 40.577 52.4656 40.4358 51.6082C40.2945 50.7509 39.4646 50.1635 38.5756 50.2917ZM60.4012 50.254C59.4925 50.3393 58.8271 51.1197 58.9147 51.9976C59.0023 52.8753 59.8098 53.5185 60.7186 53.4346C61.6286 53.3507 62.2954 52.5697 62.2077 51.6909C62.12 50.8121 61.311 50.1686 60.4012 50.254ZM42.884 40.3591C43.0416 39.707 43.179 37.8534 42.8456 37.2896C42.3799 36.9309 40.6663 37.0602 40.0217 37.0977C38.8107 37.21 37.9088 37.4977 37.1113 38.4298C36.8197 38.7705 36.2419 39.5771 36.3333 40.0347C36.3606 40.1709 36.4117 40.2419 36.535 40.3131C36.9763 40.5679 38.8004 40.4329 39.4067 40.4447C40.528 40.4629 41.786 40.5736 42.884 40.3591ZM53.5602 54.4454C54.8983 54.4477 56.247 54.4821 57.5832 54.4155C57.2824 53.9708 57.0076 53.5216 56.7415 53.057L45.9772 53.0248C44.8487 53.0298 43.7164 53.017 42.5887 53.0493C42.2986 53.535 41.9942 54.0032 41.6686 54.4678L53.5602 54.4454Z" fill="white"/>
<path d="M48.148 23.1693C48.7351 23.1066 49.4393 23.2377 50.0419 23.257C51.4382 24.0582 53.455 26.8108 54.1989 28.264C53.3014 28.2666 52.4051 28.1977 51.5051 28.2084C49.7844 28.2288 48.024 28.4276 46.3304 28.7194C39.1223 29.9612 32.1116 33.4068 27.0166 38.5246C25.622 39.9255 24.4268 41.4503 23.2772 43.0426C22.4453 44.3101 21.7275 45.6272 21.0492 46.9773C21.0617 46.2547 21.2058 45.5201 21.3456 44.811C22.1595 40.6793 24.1668 36.5526 26.8162 33.2251C30.7307 28.3468 36.3498 25.0115 42.6241 23.842C43.6348 23.6478 44.6542 23.4979 45.679 23.3929C46.5017 23.3116 47.3275 23.2733 48.148 23.1693Z" fill="#DDDDDD" style="mix-blend-mode:luminosity"/>
<path d="M32.4467 16.6456C32.4655 16.6425 32.4841 16.6383 32.503 16.6364C33.0048 16.586 33.5435 16.6056 34.0483 16.606C37.6691 16.6254 41.2306 17.496 44.4251 19.1427C45.0882 19.4783 45.8157 19.8349 46.3959 20.2926C41.54 20.4932 36.809 21.8404 32.6172 24.2163C31.0637 25.0748 29.5492 26.1406 28.2003 27.276C26.4389 23.8466 25.1095 22.0182 21.5293 20.0641C24.9706 17.9971 28.4354 17.0281 32.4467 16.6456Z" fill="#DDDDDD" style="mix-blend-mode:luminosity"/>
<path d="M18.4621 22.2126C19.0918 22.2212 20.3494 22.9653 20.8914 23.2991C23.3368 24.806 24.8819 27.0732 25.4979 29.7976C24.404 31.0219 23.3966 32.3158 22.4824 33.6706L22.3635 33.8404L22.2673 33.855C22.0894 33.7325 21.336 31.9938 21.1416 31.6484C20.7563 30.9755 20.3331 30.3237 19.8736 29.6959C18.6294 27.9917 17.1572 26.6618 15.5681 25.2703C16.2648 24.1338 17.4553 23.1019 18.4621 22.2126Z" fill="white"/>
<path d="M13.5915 27.8551C15.3382 29.0185 17.0207 31.0188 18.071 32.7886C19.716 35.5605 20.7749 38.5681 19.8768 41.7562L19.3559 40.6159C18.0545 37.9281 15.9457 35.616 13.5669 33.7632C12.9173 33.2573 12.196 32.8362 11.551 32.3284L11.4714 32.2652C12.0184 30.7152 12.6922 29.2466 13.5915 27.8551Z" fill="#DDDDDD" style="mix-blend-mode:luminosity"/>
<path d="M53.2259 31.3044C54.0833 31.265 54.9355 31.4243 55.7673 31.605C55.8846 31.9825 55.9977 32.3611 56.1068 32.7409C54.1403 32.7854 52.1627 32.7468 50.1951 32.7428C49.1667 32.7343 48.1383 32.7348 47.1099 32.744C49.1819 31.9984 50.9802 31.4035 53.2259 31.3044Z" fill="white"/>
</g>
</g>
<defs>
<linearGradient id="paint0_linear_6001_2371" x1="-17.1876" y1="87.0094" x2="134.015" y2="-84.5919" gradientUnits="userSpaceOnUse">
<stop stop-color="#01C2FF"/>
<stop offset="0.306988" stop-color="#437CE9"/>
<stop offset="0.64854" stop-color="#C9A3FF"/>
</linearGradient>
<clipPath id="clip0_6001_2371">
<rect width="61" height="41" fill="white" transform="translate(9.72595 15.8956)"/>
</clipPath>
</defs>
</svg>
