<svg width="61" height="41" viewBox="0 0 61 41" fill="none" xmlns="http://www.w3.org/2000/svg">
<g clip-path="url(#clip0_10006_22810)">
<mask id="mask0_10006_22810" style="mask-type:luminance" maskUnits="userSpaceOnUse" x="0" y="0" width="61" height="41">
<path d="M61 0H0V41H61V0Z" fill="white"/>
</mask>
<g mask="url(#mask0_10006_22810)">
<path d="M28.0313 19.113C29.9872 19.0675 31.9394 19.1229 33.8952 19.126L45.7526 19.1364L51.8879 19.1335C53.0209 19.1279 54.197 19.0322 55.3235 19.1491C55.9757 19.2168 56.4813 19.3489 56.9696 19.7943C57.1536 19.962 57.3358 20.161 57.4427 20.3841C57.8339 21.2003 57.9653 22.2545 58.1604 23.1322C58.8507 26.2372 59.5241 29.294 59.6323 32.4806C59.6673 33.5138 59.9085 35.8025 59.1074 36.5812C58.8461 36.835 58.4907 36.9924 58.1337 37.0732C57.2478 37.2736 55.5697 37.1544 54.6053 37.1643C54.3259 37.6451 54.0199 38.1085 53.7143 38.574C55.9761 38.6728 58.2412 38.4971 60.5084 38.6579C60.4913 39.2579 60.5003 39.8604 60.4989 40.4608C57.4508 40.593 54.3672 40.512 51.3144 40.5109L35.743 40.4738L17.3169 40.4373C14.3177 40.4648 11.3183 40.462 8.31918 40.4293C8.31615 40.0003 8.35326 39.5669 8.37846 39.1387C8.01589 39.1197 7.65211 39.1111 7.28924 39.0975C6.38744 38.1732 5.51782 37.1642 4.7723 36.1165C1.84632 32.0037 0.397142 27.3609 0.663324 22.363C0.711519 21.4599 0.762135 20.5493 0.932733 19.6584C0.962174 19.6764 0.991313 19.6949 1.02025 19.7137C1.76304 20.1973 2.4544 20.808 3.09385 21.4132C6.35649 24.5012 7.92999 28.4237 8.80788 32.6809C9.14394 34.6279 9.17882 36.5059 9.12387 38.471L12.6852 38.468C12.8987 37.3339 13.1136 36.2135 13.4408 35.1034C14.5854 31.1831 16.7787 27.623 19.7999 24.7812C19.7719 26.0175 19.7617 27.2541 19.7694 28.4907C19.1483 29.3191 18.5306 30.1386 17.9909 31.02C16.6224 33.2548 15.6258 35.9341 15.3256 38.5158C18.9138 38.4546 22.5028 38.4551 26.0909 38.5172C25.7752 38.0677 25.4944 37.5868 25.3284 37.0654C25.016 36.1008 25.1128 35.0559 25.5974 34.1601C26.0854 33.2768 26.9561 32.5749 27.9541 32.2944C28.9499 32.0146 30.1193 32.1363 31.0234 32.6308C32.133 33.2376 32.6722 34.207 33.0028 35.3588C33.8294 35.3597 34.6544 35.3085 35.4812 35.3025C38.1186 35.2916 40.7561 35.2994 43.3933 35.3259C44.5493 35.3427 45.6875 35.2914 46.8423 35.386C46.9603 34.8304 47.1769 34.2987 47.4827 33.8146C48.0152 32.9858 48.8423 32.3563 49.8324 32.132C50.839 31.9041 51.9885 32.0974 52.8593 32.6328C53.8542 33.2446 54.4719 34.2737 54.7189 35.3714C55.8009 35.4023 56.8842 35.3861 57.9666 35.4158C57.8941 34.5267 57.9639 33.6109 57.933 32.7154C54.8414 30.8876 50.275 29.2309 46.6826 28.6869C45.4056 28.4935 44.116 28.5334 42.828 28.5354L38.4601 28.5421L22.2437 28.5513C22.2391 28.4628 22.2349 28.3742 22.2313 28.2856C22.1246 25.6631 22.4827 22.6807 24.4248 20.6818C25.3901 19.6883 26.6264 19.1494 28.0313 19.113ZM52.7464 27.2774C53.9421 27.6705 55.5752 27.7867 56.8538 28.0855L57.9154 28.3214L57.0463 24.3583C56.8134 23.3214 56.537 22.28 56.3851 21.2293C55.0649 21.1527 53.6385 21.1231 52.3196 21.2032C51.927 21.2242 51.472 21.1996 51.1855 21.5075C50.8123 21.9086 50.8712 23.8617 50.9611 24.4122C51.078 25.1279 52.2894 26.6216 52.7464 27.2774ZM48.8337 24.5187C49.0157 24.5061 49.1855 24.513 49.3192 24.3779C49.7444 23.9478 49.6292 22.5933 49.5742 22.0343C49.5505 21.7944 49.5132 21.5288 49.3312 21.351C48.6418 21.0849 44.44 21.1494 43.446 21.2016C43.2097 21.2188 42.9891 21.2103 42.822 21.3987C42.7079 21.5274 42.6496 21.7197 42.6282 21.885C42.5829 22.2353 42.6049 23.6398 42.6492 23.9879C42.6663 24.1237 42.7283 24.3211 42.8467 24.4057C43.1995 24.6581 48.0704 24.5395 48.8337 24.5187ZM40.4944 24.5343C40.6985 24.5191 41.0642 24.5334 41.2011 24.3664C41.4862 24.0185 41.4576 22.2924 41.3766 21.8278C41.34 21.6175 41.2864 21.4558 41.1252 21.3076C40.4454 21.0707 36.4478 21.1659 35.4934 21.204C35.2712 21.2127 34.8514 21.1841 34.6907 21.3565C34.3834 21.6866 34.4627 23.5189 34.5616 23.9614C34.6019 24.1422 34.6548 24.2658 34.7739 24.4098C35.2937 24.6981 39.6804 24.5471 40.4944 24.5343ZM28.8497 34.3961C27.9488 34.5261 27.3306 35.341 27.4738 36.2099C27.6169 37.0788 28.4663 37.6682 29.3646 37.5216C30.2507 37.3771 30.8511 36.57 30.7098 35.7126C30.5685 34.8553 29.7386 34.2678 28.8497 34.3961ZM50.6753 34.3584C49.7665 34.4437 49.1012 35.2241 49.1888 36.1019C49.2764 36.9797 50.0838 37.6229 50.9927 37.539C51.9026 37.455 52.5695 36.6741 52.4818 35.7953C52.394 34.9164 51.585 34.273 50.6753 34.3584ZM33.1581 24.4635C33.3157 23.8114 33.4531 21.9578 33.1197 21.3939C32.6539 21.0353 30.9404 21.1646 30.2957 21.2021C29.0848 21.3144 28.1829 21.602 27.3854 22.5341C27.0938 22.8749 26.5159 23.6815 26.6074 24.1391C26.6346 24.2752 26.6857 24.3463 26.809 24.4175C27.2504 24.6723 29.0744 24.5373 29.6808 24.5491C30.8021 24.5673 32.0601 24.6779 33.1581 24.4635ZM43.8343 38.5498C45.1724 38.5521 46.521 38.5865 47.8573 38.5199C47.5565 38.0752 47.2816 37.6259 47.0156 37.1614L36.2512 37.1292C35.1228 37.1341 33.9905 37.1214 32.8628 37.1537C32.5727 37.6394 32.2683 38.1076 31.9426 38.5722L43.8343 38.5498Z" fill="url(#paint0_linear_10006_22810)"/>
<path d="M38.422 7.27369C39.0091 7.21098 39.7133 7.34206 40.316 7.36134C41.7122 8.16254 43.729 10.9152 44.4729 12.3684C43.5755 12.3709 42.6791 12.3021 41.7792 12.3128C40.0584 12.3332 38.298 12.532 36.6044 12.8238C29.3964 14.0656 22.3857 17.5111 17.2906 22.629C15.8961 24.0298 14.7008 25.5546 13.5513 27.147C12.7194 28.4145 12.0016 29.7316 11.3232 31.0816C11.3357 30.359 11.4799 29.6244 11.6196 28.9154C12.4335 24.7837 14.4409 20.6569 17.0903 17.3295C21.0048 12.4512 26.6238 9.11587 32.8982 7.94635C33.9088 7.75216 34.9282 7.60228 35.953 7.49729C36.7757 7.41597 37.6015 7.3777 38.422 7.27369Z" fill="url(#paint1_linear_10006_22810)"/>
<path d="M22.7207 0.749934C22.7396 0.746915 22.7581 0.742631 22.7771 0.740781C23.2788 0.690334 23.8175 0.710008 24.3224 0.710398C27.9431 0.729778 31.5046 1.60042 34.6991 3.24704C35.3622 3.58264 36.0897 3.93927 36.67 4.39699C31.8141 4.5976 27.0831 5.94476 22.8912 8.32072C21.3378 9.17919 19.8233 10.245 18.4743 11.3803C16.713 7.95094 15.3836 6.12259 11.8033 4.16842C15.2447 2.10148 18.7095 1.13247 22.7207 0.749934Z" fill="url(#paint2_linear_10006_22810)"/>
<path d="M8.73618 6.31714C9.36585 6.32571 10.6235 7.06975 11.1654 7.40359C13.6108 8.91046 15.1559 11.1777 15.772 13.9021C14.6781 15.1264 13.6706 16.4203 12.7564 17.7751L12.6376 17.9449L12.5414 17.9595C12.3634 17.837 11.61 16.0983 11.4156 15.7529C11.0304 15.08 10.6071 14.4282 10.1477 13.8004C8.90346 12.0962 7.43129 10.7663 5.84216 9.3748C6.53887 8.2383 7.72933 7.20638 8.73618 6.31714Z" fill="url(#paint3_linear_10006_22810)"/>
<path d="M3.86556 11.9595C5.61228 13.1229 7.29477 15.1232 8.34508 16.893C9.99006 19.6648 11.0489 22.6725 10.1509 25.8606L9.62991 24.7203C8.32854 22.0324 6.21976 19.7204 3.84096 17.8676C3.19134 17.3616 2.47002 16.9405 1.82504 16.4328L1.74548 16.3696C2.29247 14.8195 2.96629 13.3509 3.86556 11.9595Z" fill="url(#paint4_linear_10006_22810)"/>
<path d="M43.4999 15.4089C44.3574 15.3695 45.2096 15.5288 46.0414 15.7095C46.1586 16.087 46.2718 16.4656 46.3809 16.8454C44.4143 16.8899 42.4367 16.8513 40.4692 16.8473C39.4408 16.8388 38.4123 16.8393 37.3839 16.8485C39.456 16.1028 41.2542 15.508 43.4999 15.4089Z" fill="url(#paint5_linear_10006_22810)"/>
</g>
</g>
<defs>
<linearGradient id="paint0_linear_10006_22810" x1="-12.8319" y1="42.4154" x2="10.62" y2="-31.8976" gradientUnits="userSpaceOnUse">
<stop stop-color="#01C2FF"/>
<stop offset="0.306988" stop-color="#437CE9"/>
<stop offset="0.64854" stop-color="#C9A3FF"/>
</linearGradient>
<linearGradient id="paint1_linear_10006_22810" x1="3.86893" y1="33.1691" x2="44.9023" y2="-31.6271" gradientUnits="userSpaceOnUse">
<stop stop-color="#01C2FF"/>
<stop offset="0.306988" stop-color="#437CE9"/>
<stop offset="0.64854" stop-color="#C9A3FF"/>
</linearGradient>
<linearGradient id="paint2_linear_10006_22810" x1="6.21166" y1="12.3156" x2="19.6696" y2="-23.2663" gradientUnits="userSpaceOnUse">
<stop stop-color="#01C2FF"/>
<stop offset="0.306988" stop-color="#437CE9"/>
<stop offset="0.64854" stop-color="#C9A3FF"/>
</linearGradient>
<linearGradient id="paint3_linear_10006_22810" x1="3.60928" y1="18.9796" x2="25.7784" y2="-2.47943" gradientUnits="userSpaceOnUse">
<stop stop-color="#01C2FF"/>
<stop offset="0.306988" stop-color="#437CE9"/>
<stop offset="0.64854" stop-color="#C9A3FF"/>
</linearGradient>
<linearGradient id="paint4_linear_10006_22810" x1="-0.218381" y1="27.0786" x2="24.8198" y2="9.22608" gradientUnits="userSpaceOnUse">
<stop stop-color="#01C2FF"/>
<stop offset="0.306988" stop-color="#437CE9"/>
<stop offset="0.64854" stop-color="#C9A3FF"/>
</linearGradient>
<linearGradient id="paint5_linear_10006_22810" x1="35.3608" y1="16.9949" x2="36.1443" y2="11.5295" gradientUnits="userSpaceOnUse">
<stop stop-color="#01C2FF"/>
<stop offset="0.306988" stop-color="#437CE9"/>
<stop offset="0.64854" stop-color="#C9A3FF"/>
</linearGradient>
<clipPath id="clip0_10006_22810">
<rect width="61" height="41" fill="white"/>
</clipPath>
</defs>
</svg>
