<svg width="62" height="42" viewBox="0 0 62 42" fill="none" xmlns="http://www.w3.org/2000/svg">
<g clip-path="url(#clip0_10006_22499)">
<mask id="mask0_10006_22499" style="mask-type:luminance" maskUnits="userSpaceOnUse" x="0" y="0" width="62" height="42">
<path d="M61.726 0.89563H0.725952V41.8956H61.726V0.89563Z" fill="white"/>
</mask>
<g mask="url(#mask0_10006_22499)">
<path d="M28.7572 20.0087C30.7131 19.9632 32.6653 20.0185 34.6212 20.0216L46.4786 20.032L52.6138 20.0291C53.7468 20.0236 54.923 19.9278 56.0494 20.0447C56.7017 20.1125 57.2073 20.2445 57.6956 20.69C57.8795 20.8577 58.0617 21.0566 58.1687 21.2798C58.5599 22.096 58.6913 23.1502 58.8864 24.0278C59.5766 27.1328 60.25 30.1896 60.3582 33.3762C60.3932 34.4094 60.6345 36.6981 59.8333 37.4768C59.5721 37.7306 59.2167 37.8881 58.8596 37.9688C57.9738 38.1692 56.2956 38.05 55.3312 38.06C55.0518 38.5408 54.7458 39.0041 54.4402 39.4696C56.7021 39.5684 58.9671 39.3927 61.2343 39.5535C61.2173 40.1535 61.2262 40.756 61.2248 41.3564C58.1768 41.4887 55.0932 41.4076 52.0403 41.4066L36.4689 41.3695L18.0429 41.3329C15.0437 41.3604 12.0442 41.3577 9.04513 41.325C9.04211 40.896 9.07921 40.4625 9.10441 40.0343C8.74184 40.0153 8.37806 40.0067 8.01519 39.9931C7.1134 39.0688 6.24377 38.0599 5.49826 37.0122C2.57227 32.8993 1.12309 28.2566 1.38928 23.2587C1.43747 22.3555 1.48809 21.4449 1.65869 20.554C1.68813 20.572 1.71727 20.5905 1.7462 20.6093C2.48899 21.093 3.18036 21.7037 3.8198 22.3088C7.08244 25.3968 8.65594 29.3194 9.53383 33.5765C9.86989 35.5235 9.90478 37.4015 9.84982 39.3666L13.4111 39.3637C13.6247 38.2295 13.8395 37.1092 14.1667 35.999C15.3114 32.0787 17.5047 28.5186 20.5258 25.6768C20.4978 26.9131 20.4876 28.1497 20.4954 29.3864C19.8743 30.2147 19.2565 31.0342 18.7168 31.9156C17.3484 34.1504 16.3517 36.8298 16.0516 39.4114C19.6398 39.3502 23.2288 39.3507 26.8169 39.4129C26.5011 38.9633 26.2203 38.4824 26.0543 37.961C25.742 36.9964 25.8388 35.9515 26.3234 35.0558C26.8114 34.1725 27.6821 33.4705 28.6801 33.19C29.6758 32.9102 30.8452 33.0319 31.7493 33.5264C32.8589 34.1332 33.3981 35.1026 33.7288 36.2544C34.5553 36.2554 35.3804 36.2041 36.2072 36.1981C38.8446 36.1872 41.482 36.195 44.1192 36.2216C45.2753 36.2383 46.4134 36.187 47.5683 36.2817C47.6863 35.7261 47.9028 35.1943 48.2086 34.7102C48.7411 33.8815 49.5683 33.252 50.5584 33.0277C51.5649 32.7997 52.7145 32.993 53.5852 33.5284C54.5802 34.1402 55.1978 35.1693 55.4449 36.2671C56.5268 36.2979 57.6102 36.2818 58.6926 36.3115C58.6201 35.4223 58.6898 34.5065 58.659 33.611C55.5674 31.7833 51.0009 30.1265 47.4086 29.5825C46.1315 29.3891 44.8419 29.429 43.554 29.4311L39.1861 29.4377L22.9697 29.4469C22.965 29.3584 22.9609 29.2698 22.9573 29.1813C22.8506 26.5587 23.2086 23.5763 25.1507 21.5775C26.1161 20.5839 27.3524 20.0451 28.7572 20.0087ZM53.4724 28.173C54.6681 28.5662 56.3012 28.6823 57.5798 28.9811L58.6414 29.217L57.7722 25.2539C57.5393 24.217 57.263 23.1756 57.111 22.1249C55.7909 22.0483 54.3645 22.0187 53.0456 22.0988C52.653 22.1198 52.1979 22.0953 51.9115 22.4031C51.5382 22.8043 51.5971 24.7574 51.6871 25.3078C51.8039 26.0235 53.0153 27.5172 53.4724 28.173ZM49.5596 25.4143C49.7416 25.4018 49.9115 25.4087 50.0452 25.2735C50.4704 24.8434 50.3551 23.4889 50.3002 22.9299C50.2765 22.69 50.2392 22.4244 50.0572 22.2466C49.3677 21.9806 45.166 22.045 44.172 22.0972C43.9356 22.1145 43.715 22.1059 43.5479 22.2943C43.4338 22.4231 43.3755 22.6153 43.3542 22.7806C43.3089 23.1309 43.3309 24.5354 43.3751 24.8836C43.3923 25.0193 43.4543 25.2167 43.5726 25.3014C43.9254 25.5537 48.7964 25.4352 49.5596 25.4143ZM41.2204 25.4299C41.4244 25.4147 41.7901 25.429 41.927 25.262C42.2122 24.9141 42.1836 23.1881 42.1026 22.7234C42.066 22.5132 42.0123 22.3514 41.8511 22.2032C41.1714 21.9663 37.1738 22.0616 36.2194 22.0997C35.9972 22.1083 35.5773 22.0797 35.4167 22.2522C35.1094 22.5822 35.1886 24.4145 35.2875 24.8571C35.3279 25.0378 35.3808 25.1614 35.4999 25.3054C36.0196 25.5937 40.4064 25.4428 41.2204 25.4299ZM29.5756 35.2917C28.6747 35.4217 28.0566 36.2367 28.1997 37.1056C28.3428 37.9744 29.1923 38.5638 30.0905 38.4173C30.9767 38.2727 31.577 37.4656 31.4358 36.6082C31.2945 35.7509 30.4646 35.1635 29.5756 35.2917ZM51.4012 35.254C50.4925 35.3393 49.8271 36.1197 49.9147 36.9976C50.0023 37.8753 50.8098 38.5185 51.7186 38.4346C52.6286 38.3507 53.2954 37.5697 53.2077 36.6909C53.12 35.8121 52.311 35.1686 51.4012 35.254ZM33.884 25.3591C34.0416 24.707 34.179 22.8534 33.8456 22.2896C33.3799 21.9309 31.6663 22.0602 31.0217 22.0977C29.8107 22.21 28.9088 22.4977 28.1113 23.4298C27.8197 23.7705 27.2419 24.5771 27.3333 25.0347C27.3606 25.1709 27.4117 25.2419 27.535 25.3131C27.9763 25.5679 29.8004 25.4329 30.4067 25.4447C31.528 25.4629 32.786 25.5736 33.884 25.3591ZM44.5602 39.4454C45.8983 39.4477 47.247 39.4821 48.5832 39.4155C48.2824 38.9708 48.0076 38.5216 47.7415 38.057L36.9772 38.0248C35.8487 38.0298 34.7164 38.017 33.5887 38.0493C33.2986 38.535 32.9942 39.0032 32.6686 39.4678L44.5602 39.4454Z" fill="white"/>
<path d="M39.148 8.16932C39.7351 8.10661 40.4393 8.23769 41.0419 8.25697C42.4382 9.05817 44.455 11.8108 45.1989 13.264C44.3014 13.2666 43.4051 13.1977 42.5051 13.2084C40.7844 13.2288 39.024 13.4276 37.3304 13.7194C30.1223 14.9612 23.1116 18.4068 18.0166 23.5246C16.622 24.9255 15.4268 26.4503 14.2772 28.0426C13.4453 29.3101 12.7275 30.6272 12.0492 31.9773C12.0617 31.2547 12.2058 30.5201 12.3456 29.811C13.1595 25.6793 15.1668 21.5526 17.8162 18.2251C21.7307 13.3468 27.3498 10.0115 33.6241 8.84198C34.6348 8.64779 35.6542 8.49791 36.679 8.39292C37.5017 8.3116 38.3275 8.27333 39.148 8.16932Z" fill="#DDDDDD" style="mix-blend-mode:luminosity"/>
<path d="M23.4467 1.64556C23.4655 1.64255 23.4841 1.63826 23.503 1.63641C24.0048 1.58596 24.5435 1.60564 25.0483 1.60603C28.6691 1.62541 32.2306 2.49605 35.4251 4.14267C36.0882 4.47827 36.8157 4.8349 37.3959 5.29262C32.54 5.49323 27.809 6.84039 23.6172 9.21635C22.0637 10.0748 20.5492 11.1406 19.2003 12.276C17.4389 8.84657 16.1095 7.01822 12.5293 5.06405C15.9706 2.99711 19.4354 2.0281 23.4467 1.64556Z" fill="#DDDDDD" style="mix-blend-mode:luminosity"/>
<path d="M9.46214 7.21265C10.0918 7.22122 11.3494 7.96526 11.8914 8.2991C14.3368 9.80597 15.8819 12.0732 16.4979 14.7976C15.404 16.0219 14.3966 17.3158 13.4824 18.6706L13.3635 18.8404L13.2673 18.855C13.0894 18.7325 12.336 16.9938 12.1416 16.6484C11.7563 15.9755 11.3331 15.3237 10.8736 14.6959C9.62941 12.9917 8.15724 11.6618 6.56812 10.2703C7.26483 9.1338 8.45528 8.10189 9.46214 7.21265Z" fill="white"/>
<path d="M4.59151 12.8551C6.33823 14.0185 8.02072 16.0188 9.07103 17.7886C10.716 20.5605 11.7749 23.5681 10.8768 26.7562L10.3559 25.6159C9.0545 22.9281 6.94571 20.616 4.56691 18.7632C3.91729 18.2573 3.19597 17.8362 2.55099 17.3284L2.47144 17.2652C3.01842 15.7152 3.69224 14.2466 4.59151 12.8551Z" fill="#DDDDDD" style="mix-blend-mode:luminosity"/>
<path d="M44.2259 16.3044C45.0833 16.265 45.9355 16.4243 46.7673 16.605C46.8846 16.9825 46.9977 17.3611 47.1068 17.7409C45.1403 17.7854 43.1627 17.7468 41.1951 17.7428C40.1667 17.7343 39.1383 17.7348 38.1099 17.744C40.1819 16.9984 41.9802 16.4035 44.2259 16.3044Z" fill="white"/>
</g>
</g>
<defs>
<clipPath id="clip0_10006_22499">
<rect width="61" height="41" fill="white" transform="translate(0.725952 0.89563)"/>
</clipPath>
</defs>
</svg>
